<?xml version="1.0" encoding="iso-8859-1"?>
<!-- Generator: Adobe Illustrator 19.0.0, SVG Export Plug-In . SVG Version: 6.00 Build 0)  -->
<svg version="1.1" id="Capa_1" xmlns="http://www.w3.org/2000/svg" xmlns:xlink="http://www.w3.org/1999/xlink" x="0px" y="0px"
	 viewBox="0 0 512 512" style="enable-background:new 0 0 512 512;" xml:space="preserve">
<rect x="131" y="474.5" style="fill:#67777C;" width="250" height="30"/>
<rect x="191" y="7.5" style="fill:#90A5A8;" width="130" height="70"/>
<rect x="221" y="30" style="fill:#FFFFFF;" width="70" height="25"/>
<rect x="106" y="127.5" style="fill:#90A5A8;" width="300" height="347"/>
<g>
	<rect x="106" y="127.5" style="fill:#67777C;" width="300" height="20"/>
	<rect x="66" y="77.5" style="fill:#67777C;" width="380" height="50"/>
</g>
<g>
	<rect x="146" y="95" style="fill:#FFFFFF;" width="180" height="15"/>
	<rect x="351" y="95" style="fill:#FFFFFF;" width="15" height="15"/>
</g>
<path d="M298.5,62.5v-40h-85v40H298.5z M228.5,37.5h55v10h-55V37.5z"/>
<path d="M453.5,70h-255V15h115v37.5h15V0h-145v70h-125v65h340v332h-285V152.5h-15V482h25v30h265v-30h25V135h40V70z M373.5,497h-235
	v-15h235V497z M438.5,120h-365V85h365V120z"/>
<rect x="298.5" y="185" width="15" height="232"/>
<rect x="248.5" y="185" width="15" height="232"/>
<rect x="198.5" y="185" width="15" height="232"/>
<rect x="148.5" y="185" width="15" height="232"/>
<rect x="348.5" y="185" width="15" height="232"/>
<rect x="373.5" y="434.5" width="15" height="15"/>
<rect x="123.5" y="152.5" style="fill:#FFFFFF;" width="15" height="15"/>
<g>
</g>
<g>
</g>
<g>
</g>
<g>
</g>
<g>
</g>
<g>
</g>
<g>
</g>
<g>
</g>
<g>
</g>
<g>
</g>
<g>
</g>
<g>
</g>
<g>
</g>
<g>
</g>
<g>
</g>
</svg>
